<?xml version="1.0" encoding="utf-8"?>
<!-- Generator: Adobe Illustrator 22.1.0, SVG Export Plug-In . SVG Version: 6.00 Build 0)  -->
<svg version="1.0" id="Layer_1" xmlns="http://www.w3.org/2000/svg" xmlns:xlink="http://www.w3.org/1999/xlink" x="0px" y="0px"
	 viewBox="0 0 131 187.7" style="enable-background:new 0 0 131 187.7;" xml:space="preserve">
<circle style="fill:#FFFFFF;" cx="65.6" cy="65.8" r="24.9"/>
<g>
	<path style="fill:#8DC248;" d="M65.3,187.7C38.1,157.2,13,126.1,2.6,85.9c-7.7-30.1,1.8-57.4,25.1-74c39.6-28.2,96-3.8,102.6,44.2
		c2.5,18.4-2.2,35.4-9.5,51.8C107.6,137.8,87.9,163.3,65.3,187.7z M42.1,65.4c0,13.5,10.2,23.8,23.5,23.8c13,0,23.5-10.5,23.4-23.5
		c0-13.2-10.2-23.4-23.3-23.4C52.4,42.3,42.1,52.3,42.1,65.4z"/>
</g>
</svg>
